# xmcd
#
# Track frame offsets:
#	150
#	11924
#	22826
#	39549
#	50757
#	60458
#	72438
#	84439
#	95719
#	113810
#	123848
#	134053
#	145379
#	161322
#	174088
#	187447
#	198355
#	209677
#	228428
#	242167
#	252235
#	269536
#
# Disc length: 3839 seconds
#
# Revision: 0
# Processed by: cddbd v1.4PL0 Copyright (c) Steve Scherf et al.
# Submitted via: EasyCDDAExtractor 4.6.9.1
#
DISCID=480efd16
DTITLE=Johnny Cash  - Reader's Digest Classics-Disc 2
DYEAR=1999
DGENRE=Country
TTITLE0=A Thing Called Love
TTITLE1=Daddy Sang Bass
TTITLE2=The Streets Of Laredo
TTITLE3=He'll Understand And Say Well Done
TTITLE4=Amen
TTITLE5=Gospel Boogie
TTITLE6=What Is Truth
TTITLE7=Amazing Grace
TTITLE8=Jesus Was A Carpenter
TTITLE9=Shepherd Of My Heart
TTITLE10=All Of God's Children Ain't Free
TTITLE11=If I Had A Hammer
TTITLE12=This Train Is Bound For Glory
TTITLE13=Remember The Alamo
TTITLE14=The Shifting Whispering Sands
TTITLE15=Old Shep
TTITLE16=Bury Me Not On The Lone Prairie
TTITLE17=The Ballad of Ira Hayes
TTITLE18=If We Never Meet Again
TTITLE19=Peace In The Valley
TTITLE20=These Hands
TTITLE21=Sunday Morning Coming Down
EXTD=
EXTT0=
EXTT1=
EXTT2=
EXTT3=
EXTT4=
EXTT5=
EXTT6=
EXTT7=
EXTT8=
EXTT9=
EXTT10=
EXTT11=
EXTT12=
EXTT13=
EXTT14=
EXTT15=
EXTT16=
EXTT17=
EXTT18=
EXTT19=
EXTT20=
EXTT21=
PLAYORDER=
